<svg xmlns="http://www.w3.org/2000/svg" version="1.1" xmlns:xlink="http://www.w3.org/1999/xlink" xmlns:svgjs="http://svgjs.dev/svgjs" viewBox="0 0 800 800"><defs><filter id="bbburst-blur-1" x="-100%" y="-100%" width="400%" height="400%"><feGaussianBlur in="SourceGraphic" stdDeviation="1"></feGaussianBlur></filter><filter id="bbburst-blur-2" x="-100%" y="-100%" width="400%" height="400%"><feGaussianBlur in="SourceGraphic" stdDeviation="2"></feGaussianBlur></filter><filter id="bbburst-blur-3" x="-100%" y="-100%" width="400%" height="400%"><feGaussianBlur in="SourceGraphic" stdDeviation="4"></feGaussianBlur></filter><filter id="bbburst-blur-4" x="-100%" y="-100%" width="400%" height="400%"><feGaussianBlur in="SourceGraphic" stdDeviation="12"></feGaussianBlur></filter><symbol id="bbburst-shape-1" viewBox="0 0 194 167"><path d="m97 0 96.129 166.5H.871L97 0Z"></path></symbol><symbol id="bbburst-shape-4" viewBox="0 0 149 143"><path d="M71.647 2.781c.898-2.764 4.808-2.764 5.706 0l15.445 47.534a3 3 0 0 0 2.853 2.073h49.98c2.906 0 4.115 3.719 1.764 5.427L106.96 87.193a2.999 2.999 0 0 0-1.09 3.354l15.445 47.534c.898 2.764-2.266 5.062-4.617 3.354l-40.435-29.378a3 3 0 0 0-3.526 0l-40.435 29.378c-2.351 1.708-5.515-.59-4.617-3.354L43.13 90.547a3 3 0 0 0-1.09-3.354L1.605 57.815c-2.35-1.708-1.142-5.427 1.764-5.427h49.98a3 3 0 0 0 2.853-2.073L71.647 2.781Z"></path></symbol><symbol id="bbburst-shape-6" viewBox="0 0 133 116"><path d="M59.7487 10.2513c-13.6683-13.66839-35.8291-13.66839-49.4974 0-13.66839 13.6683-13.66839 35.8291 0 49.4974l49.4974-49.4974ZM66.5 66.5 41.7513 91.2487 66.5 115.997l24.7487-24.7483L66.5 66.5Zm56.249-6.7513c13.668-13.6683 13.668-35.8291 0-49.4974-13.669-13.66839-35.8294-13.66839-49.4977 0l49.4977 49.4974Zm-112.4977 0 31.5 31.5 49.4974-49.4974-31.5-31.5-49.4974 49.4974Zm80.9974 31.5 31.5003-31.5-49.4977-49.4974-31.5 31.5 49.4974 49.4974Z"></path></symbol><symbol id="bbburst-shape-8" viewBox="0 0 87 168"><path d="m12 12 31.2546 18.0749c16.4102 9.4902 20.014 31.6325 7.4603 45.8369L36.3296 92.1884c-12.5684 14.2206-8.9394 36.3916 7.5068 45.8636L75 156" stroke-width="14" stroke-linecap="round" stroke-linejoin="round"></path></symbol><symbol id="bbburst-shape-10" viewBox="0 0 145 145"><circle cx="72.5" cy="72.5" r="61.5" fill="none" stroke-width="22"></circle></symbol></defs><use xlink:href="#bbburst-shape-4" width="25.84208845530287" opacity="0.27368280794526434" transform="matrix(1.2451469287788903,0.1100414728749898,-0.1100414728749898,1.2451469287788903,278.80885181502106,-390.29578316202105)" fill="#00a19d" filter="url(#bbburst-blur-3)"></use><use xlink:href="#bbburst-shape-1" width="41.962453414056846" opacity="0.29849125069299354" transform="matrix(1.2201180937888598,-0.27168333995488025,0.27168333995488025,1.2201180937888598,339.9846757836149,224.54334652624448)" fill="#00a19d" filter="url(#bbburst-blur-3)"></use><use xlink:href="#bbburst-shape-10" width="13.610678570271698" opacity="0.9099149569475365" transform="matrix(0.9794035840705697,0.20191240553696146,-0.20191240553696146,0.9794035840705697,439.7644363609178,-14.686277545477424)" fill="none" stroke="#ffa6d5"></use><use xlink:href="#bbburst-shape-4" width="33.21262275018264" opacity="0.4110454405265277" transform="matrix(0.9684825322331353,0.24908148216857473,-0.24908148216857473,0.9684825322331353,402.352765582895,-243.78760529478913)" fill="#00a19d" filter="url(#bbburst-blur-2)"></use><use xlink:href="#bbburst-shape-4" width="40.20600632064856" opacity="0.34593582862179817" transform="matrix(0.999822630915868,-0.01883365892417225,0.01883365892417225,0.999822630915868,538.8306932220743,-242.24747946334156)" fill="#2c2891" filter="url(#bbburst-blur-2)"></use><use xlink:href="#bbburst-shape-10" width="21.804688569394767" opacity="0.6199703893552035" transform="matrix(0.9975919297647186,-0.06935662670794183,0.06935662670794183,0.9975919297647186,353.29687558520965,172.5415077816645)" fill="none" stroke="#2c2891" filter="url(#bbburst-blur-1)"></use><use xlink:href="#bbburst-shape-4" width="33.977777944964274" opacity="-0.07537806604475072" transform="matrix(1.5428003539482522,0.8259945931161703,-0.8259945931161703,1.5428003539482522,1039.2145309678808,118.06278205622596)" fill="#2c2891" filter="url(#bbburst-blur-4)"></use><use xlink:href="#bbburst-shape-1" width="26.532626148215847" opacity="0.16947676219621655" transform="matrix(1.2435517654718773,0.12680302280220643,-0.12680302280220643,1.2435517654718773,501.6631316404564,-466.66008927675495)" fill="#ff5c58" filter="url(#bbburst-blur-3)"></use><use xlink:href="#bbburst-shape-1" width="35.422842154446755" opacity="0.46385839162853826" transform="matrix(0.7971383192877309,0.6037967372577725,-0.6037967372577725,0.7971383192877309,644.9144160006547,311.112135489091)" fill="#2c2891" filter="url(#bbburst-blur-2)"></use><use xlink:href="#bbburst-shape-6" width="24.030052038633908" opacity="0.658576315821894" transform="matrix(0.910922484155247,0.41257754163361077,-0.41257754163361077,0.910922484155247,554.3553374049517,-122.96629565044873)" fill="#ffa6d5" filter="url(#bbburst-blur-1)"></use><use xlink:href="#bbburst-shape-8" width="17.068078648309644" opacity="0.886963104865087" transform="matrix(0.7743301986586465,0.6327817502466874,-0.6327817502466874,0.7743301986586465,660.4124641658076,35.93941285650715)" fill="none" stroke="#00a19d"></use><use xlink:href="#bbburst-shape-10" width="31.581373237261946" opacity="0.249706733259225" transform="matrix(1.2394718352360774,0.16189369863126232,-0.16189369863126232,1.2394718352360774,743.5782550295347,59.632787601928385)" fill="none" stroke="#ff5c58" filter="url(#bbburst-blur-3)"></use><use xlink:href="#bbburst-shape-10" width="22.922155909041102" opacity="0.7857646079920584" transform="matrix(0.7731586145590055,-0.6342127062218158,0.6342127062218158,0.7731586145590055,150.39943345508823,2.4725550316653653)" fill="none" stroke="#ffa6d5"></use><use xlink:href="#bbburst-shape-8" width="35.42062257296189" opacity="0.33713269793031464" transform="matrix(0.96871719616565,-0.2481672699067336,0.2481672699067336,0.96871719616565,223.22064949818713,309.0284714866654)" fill="none" stroke="#2c2891" filter="url(#bbburst-blur-2)"></use><use xlink:href="#bbburst-shape-1" width="32.05239650810229" opacity="0.19057574874805328" transform="matrix(0.8846961201478605,0.8830700849849475,-0.8830700849849475,0.8846961201478605,759.2990821278013,395.6814195649516)" fill="#00a19d" filter="url(#bbburst-blur-3)"></use><use xlink:href="#bbburst-shape-10" width="26.589779477027054" opacity="0.6143146943664279" transform="matrix(0.9663360580615756,0.25728315702745713,-0.25728315702745713,0.9663360580615756,359.9180496739447,124.86681303389344)" fill="none" stroke="#00a19d" filter="url(#bbburst-blur-1)"></use><use xlink:href="#bbburst-shape-6" width="22.229403407525012" opacity="0.6829454412161785" transform="matrix(0.9206753748017183,-0.3903291613929395,0.3903291613929395,0.9206753748017183,104.42151854331209,96.56475824842005)" fill="#2c2891" filter="url(#bbburst-blur-1)"></use><use xlink:href="#bbburst-shape-6" width="11.279640076042515" opacity="0.9386325231312864" transform="matrix(0.791854172870241,0.6107102168033433,-0.6107102168033433,0.791854172870241,650.350842487089,105.34196065101543)" fill="#2c2891"></use><use xlink:href="#bbburst-shape-4" width="24.760515877159364" opacity="0.6508840489676" transform="matrix(0.758342592167453,-0.6518562056962779,0.6518562056962779,0.758342592167453,65.50766279860284,248.05692361762368)" fill="#ffa6d5" filter="url(#bbburst-blur-1)"></use><use xlink:href="#bbburst-shape-6" width="11.809524471764664" opacity="0.8614094401314758" transform="matrix(0.9979464954564093,-0.06405304213127412,0.06405304213127412,0.9979464954564093,394.91550137476736,57.68848724436867)" fill="#ffbd9b"></use><use xlink:href="#bbburst-shape-8" width="38.77003402352067" opacity="0.15579758933335763" transform="matrix(1.0612151300842214,0.6605470821071947,-0.6605470821071947,1.0612151300842214,902.7465883345772,240.53061727507793)" fill="none" stroke="#2c2891" filter="url(#bbburst-blur-3)"></use><use xlink:href="#bbburst-shape-4" width="33.21794937665253" opacity="0.4704427883758526" transform="matrix(0.8264103260907131,-0.5630683554690684,0.5630683554690684,0.8264103260907131,263.6727551466205,293.89102230286767)" fill="#00a19d" filter="url(#bbburst-blur-2)"></use><use xlink:href="#bbburst-shape-10" width="29.153671942542182" opacity="0.2855888096031973" transform="matrix(1.2056019343256332,0.330187788917597,-0.330187788917597,1.2056019343256332,499.4984610255567,-408.18864258324965)" fill="none" stroke="#00a19d" filter="url(#bbburst-blur-3)"></use><use xlink:href="#bbburst-shape-10" width="22.794510639865678" opacity="0.653739608420818" transform="matrix(0.9986767830769725,0.05142648095125364,-0.05142648095125364,0.9986767830769725,459.0433179260806,-147.68300388488214)" fill="none" stroke="#2c2891" filter="url(#bbburst-blur-1)"></use><use xlink:href="#bbburst-shape-10" width="21.13856369094599" opacity="0.7276443623971742" transform="matrix(0.8035762003352372,-0.595201890331997,0.595201890331997,0.8035762003352372,30.88149804250756,86.8104221700811)" fill="none" stroke="#2c2891" filter="url(#bbburst-blur-1)"></use><use xlink:href="#bbburst-shape-10" width="25.11887403654105" opacity="-0.07116592996759485" transform="matrix(1.6860509458619806,0.4687560217831027,-0.4687560217831027,1.6860509458619806,930.3493856241228,-596.2747161602372)" fill="none" stroke="#00a19d" filter="url(#bbburst-blur-4)"></use><use xlink:href="#bbburst-shape-10" width="26.812458811600518" opacity="0.2887492223525411" transform="matrix(1.2490187375807946,0.04951962411083064,-0.04951962411083064,1.2490187375807946,89.35689158216312,-36.80038170607645)" fill="none" stroke="#00a19d" filter="url(#bbburst-blur-3)"></use><use xlink:href="#bbburst-shape-8" width="22.13362672895176" opacity="0.5238543159209971" transform="matrix(0.9359148594852428,0.35222631331960164,-0.35222631331960164,0.9359148594852428,322.6441391840213,-30.148249543987674)" fill="none" stroke="#ff5c58" filter="url(#bbburst-blur-2)"></use><use xlink:href="#bbburst-shape-4" width="37.981560036318626" opacity="0.1626755885504394" transform="matrix(1.010561464011697,-0.7357075012901086,0.7357075012901086,1.010561464011697,359.8399476997104,-249.61800970466186)" fill="#ffbd9b" filter="url(#bbburst-blur-3)"></use><use xlink:href="#bbburst-shape-10" width="25.91501446946722" opacity="0.4400294838275173" transform="matrix(0.960274660213237,0.27905658378248693,-0.27905658378248693,0.960274660213237,302.0038709795824,169.17851442596026)" fill="none" stroke="#ff5c58" filter="url(#bbburst-blur-2)"></use><use xlink:href="#bbburst-shape-1" width="42.8549368859901" opacity="0.12084925928263512" transform="matrix(1.1448955260959701,0.5017113057580344,-0.5017113057580344,1.1448955260959701,930.4836537719744,-244.55202875733752)" fill="#ffbd9b" filter="url(#bbburst-blur-3)"></use><use xlink:href="#bbburst-shape-8" width="25.598568799001434" opacity="0.5299474096039736" transform="matrix(0.9779741776979258,0.20872591539161078,-0.20872591539161078,0.9779741776979258,351.6597223286465,-168.52261130633235)" fill="none" stroke="#ffa6d5" filter="url(#bbburst-blur-2)"></use><use xlink:href="#bbburst-shape-4" width="43.37377165203952" opacity="0.03862742973230482" transform="matrix(1.7316277682765588,-0.25291356652727015,0.25291356652727015,1.7316277682765588,15.186155636219496,68.69767637096368)" fill="#ffa6d5" filter="url(#bbburst-blur-4)"></use><use xlink:href="#bbburst-shape-6" width="22.54809696435322" opacity="0.7559230204202003" transform="matrix(0.9229763546957815,-0.38485665990403073,0.38485665990403073,0.9229763546957815,343.5498615391275,55.6826334179716)" fill="#ff5c58" filter="url(#bbburst-blur-1)"></use><use xlink:href="#bbburst-shape-6" width="24.08478160620343" opacity="0.5631468429305653" transform="matrix(0.9180337705165511,-0.396502202000398,0.396502202000398,0.9180337705165511,347.20636762410857,-120.51562715957766)" fill="#ffa6d5" filter="url(#bbburst-blur-1)"></use><use xlink:href="#bbburst-shape-4" width="16.748013107607928" opacity="0.801889799330445" transform="matrix(0.7185323061606573,-0.6954935837255779,0.6954935837255779,0.7185323061606573,185.02323070656206,174.5937829173809)" fill="#ffa6d5"></use><use xlink:href="#bbburst-shape-1" width="29.673877706663415" opacity="0.5966202499556257" transform="matrix(0.9863771463511837,0.16449962053480713,-0.16449962053480713,0.9863771463511837,626.6989468490118,49.25731824634255)" fill="#ff5c58" filter="url(#bbburst-blur-1)"></use><use xlink:href="#bbburst-shape-1" width="32.97528548497609" opacity="0.5066071846615869" transform="matrix(0.9994550396210822,-0.033009449798824315,0.033009449798824315,0.9994550396210822,444.62997071484057,-208.41710577193882)" fill="#2c2891" filter="url(#bbburst-blur-2)"></use><use xlink:href="#bbburst-shape-1" width="25.33546486143607" opacity="0.6484182236279894" transform="matrix(0.7622743564207597,-0.6472540502332269,0.6472540502332269,0.7622743564207597,-22.533109224093266,67.03622112738208)" fill="#ffa6d5" filter="url(#bbburst-blur-1)"></use><use xlink:href="#bbburst-shape-6" width="31.478869759628875" opacity="0.3159568039856596" transform="matrix(1.2008284629228865,-0.3471469467448302,0.3471469467448302,1.2008284629228865,-32.108648911340126,64.72192850544025)" fill="#2c2891" filter="url(#bbburst-blur-3)"></use><use xlink:href="#bbburst-shape-6" width="21.40139752093252" opacity="0.6037721988066664" transform="matrix(0.7533248570542863,0.6576485837771865,-0.6576485837771865,0.7533248570542863,477.9493992833764,112.74024325969827)" fill="#ffbd9b" filter="url(#bbburst-blur-1)"></use><use xlink:href="#bbburst-shape-10" width="15.576211242184133" opacity="0.9778965201180287" transform="matrix(0.9879296330035998,0.15490332544323407,-0.15490332544323407,0.9879296330035998,454.1466029821219,-6.324076082261115)" fill="none" stroke="#ffa6d5"></use><use xlink:href="#bbburst-shape-4" width="25.234970928305525" opacity="0.6900048595904449" transform="matrix(0.923384095324118,0.3838773404389222,-0.3838773404389222,0.923384095324118,658.322059960399,102.65832587787338)" fill="#ffbd9b" filter="url(#bbburst-blur-1)"></use><use xlink:href="#bbburst-shape-6" width="12.242147750835036" opacity="0.9271662563291513" transform="matrix(0.8989460153630581,-0.43805942686224736,0.43805942686224736,0.8989460153630581,195.41373743206344,65.57334510200599)" fill="#ffa6d5"></use><use xlink:href="#bbburst-shape-8" width="34.776643482715976" opacity="0.4475210867945849" transform="matrix(0.8805302647662923,-0.4739899290392184,0.4739899290392184,0.8805302647662923,209.13002350895943,-192.1891455360266)" fill="none" stroke="#ff5c58" filter="url(#bbburst-blur-2)"></use><use xlink:href="#bbburst-shape-8" width="19.263375474722714" opacity="0.7838976771159404" transform="matrix(0.8330174325936032,-0.5532467415133702,0.5532467415133702,0.8330174325936032,189.56989128864282,167.51505719591637)" fill="none" stroke="#ffa6d5"></use><use xlink:href="#bbburst-shape-10" width="24.325834749055183" opacity="0.6674401166982513" transform="matrix(0.7195940629532359,-0.6943949773453537,0.6943949773453537,0.7195940629532359,231.0581640437079,28.015866250119075)" fill="none" stroke="#ffa6d5" filter="url(#bbburst-blur-1)"></use><use xlink:href="#bbburst-shape-1" width="33.34359128960401" opacity="0.5058541742313873" transform="matrix(0.9854991563143668,-0.1696803256234241,0.1696803256234241,0.9854991563143668,109.58162185949216,92.09561376483691)" fill="#00a19d" filter="url(#bbburst-blur-2)"></use><use xlink:href="#bbburst-shape-1" width="19.636106562326024" opacity="0.8220383151895031" transform="matrix(0.8932986128128979,-0.44946366743770544,0.44946366743770544,0.8932986128128979,133.9210383581588,27.074518077202526)" fill="#00a19d"></use><use xlink:href="#bbburst-shape-6" width="16.931738851046852" opacity="0.8097423910765297" transform="matrix(0.943947282742515,-0.3300962396075156,0.3300962396075156,0.943947282742515,192.28523987517454,77.64508407329913)" fill="#00a19d"></use><use xlink:href="#bbburst-shape-4" width="15.427556903058196" opacity="0.790957122828237" transform="matrix(0.7985910573974718,-0.6018740092783439,0.6018740092783439,0.7985910573974718,62.25678495258626,109.64670271422955)" fill="#00a19d"></use><use xlink:href="#bbburst-shape-10" width="31.99502052886996" opacity="0.19563206297588964" transform="matrix(1.2494094575683314,0.038418840935245294,-0.038418840935245294,1.2494094575683314,753.1281804587237,-155.47271999469973)" fill="none" stroke="#ffa6d5" filter="url(#bbburst-blur-3)"></use><use xlink:href="#bbburst-shape-8" width="24.75513598820964" opacity="0.49433329593484443" transform="matrix(0.9612843314915205,-0.27555840402517306,0.27555840402517306,0.9612843314915205,214.71508291403592,237.50494001502642)" fill="none" stroke="#2c2891" filter="url(#bbburst-blur-2)"></use><use xlink:href="#bbburst-shape-4" width="20.283912135231514" opacity="0.7410640390957921" transform="matrix(0.9065256883218867,-0.42215065606075936,0.42215065606075936,0.9065256883218867,206.92749168759474,157.23612836916396)" fill="#00a19d" filter="url(#bbburst-blur-1)"></use><use xlink:href="#bbburst-shape-8" width="27.874239812906776" opacity="-0.020859821933712608" transform="matrix(1.7106279342005977,0.3691233814493408,-0.3691233814493408,1.7106279342005977,810.1234014628852,-648.6447750908015)" fill="none" stroke="#ffbd9b" filter="url(#bbburst-blur-4)"></use><use xlink:href="#bbburst-shape-10" width="30.30641792661754" opacity="0.42080158262544554" transform="matrix(0.9799598726677089,-0.1991949998395737,0.1991949998395737,0.9799598726677089,550.1177382697442,100.93178987107137)" fill="none" stroke="#2c2891" filter="url(#bbburst-blur-2)"></use><use xlink:href="#bbburst-shape-6" width="21.82342587641735" opacity="0.7293388046985161" transform="matrix(0.9986299043568535,-0.052328903334789116,0.052328903334789116,0.9986299043568535,259.2219928363195,-53.32891625053452)" fill="#ffa6d5" filter="url(#bbburst-blur-1)"></use><use xlink:href="#bbburst-shape-6" width="23.12668466103002" opacity="0.5208227792303148" transform="matrix(0.940353170278576,-0.34019981650058456,0.34019981650058456,0.940353170278576,136.15302983189542,208.98912903171527)" fill="#ffa6d5" filter="url(#bbburst-blur-2)"></use><use xlink:href="#bbburst-shape-4" width="39.95159353361247" opacity="-0.07449887176519643" transform="matrix(1.2788172261851822,-1.1946240002662079,1.1946240002662079,1.2788172261851822,-457.14028998238985,241.9731774745432)" fill="#ff5c58" filter="url(#bbburst-blur-4)"></use><use xlink:href="#bbburst-shape-10" width="40.57323111771309" opacity="0.110697030005239" transform="matrix(1.6154759102303167,0.6728577735788818,-0.6728577735788818,1.6154759102303167,274.18440021249523,-89.63378452800146)" fill="none" stroke="#ffbd9b" filter="url(#bbburst-blur-4)"></use><use xlink:href="#bbburst-shape-4" width="33.76722323095803" opacity="0.23308246496406004" transform="matrix(1.2420947421424595,-0.14035900947946578,0.14035900947946578,1.2420947421424595,147.61144667306473,202.85850012714627)" fill="#ffa6d5" filter="url(#bbburst-blur-3)"></use><use xlink:href="#bbburst-shape-8" width="28.28426791588701" opacity="0.5398390187803709" transform="matrix(0.836064764377774,-0.5486307590410305,0.5486307590410305,0.836064764377774,341.34674805288614,187.70236478237518)" fill="none" stroke="#2c2891" filter="url(#bbburst-blur-2)"></use><use xlink:href="#bbburst-shape-8" width="22.577856208922785" opacity="0.6873100896728025" transform="matrix(0.9872523083638359,-0.15916305987972648,0.15916305987972648,0.9872523083638359,231.71009922598404,-98.2753711494982)" fill="none" stroke="#00a19d" filter="url(#bbburst-blur-1)"></use><use xlink:href="#bbburst-shape-6" width="12.884340084989162" opacity="0.8182088773946792" transform="matrix(0.9916009102754227,0.1293353576596629,-0.1293353576596629,0.9916009102754227,502.885229984344,-55.623791932982044)" fill="#ff5c58"></use><use xlink:href="#bbburst-shape-6" width="31.005804610807452" opacity="0.05786273511986462" transform="matrix(1.5575078077953406,-0.7979156776605859,0.7979156776605859,1.5575078077953406,414.7920878864885,16.314799437686702)" fill="#ffbd9b" filter="url(#bbburst-blur-4)"></use><use xlink:href="#bbburst-shape-10" width="35.73341124452261" opacity="0.3806156883365175" transform="matrix(0.9336355612221233,-0.35822428563883096,0.35822428563883096,0.9336355612221233,445.09220893644135,221.72021035989837)" fill="none" stroke="#00a19d" filter="url(#bbburst-blur-2)"></use><use xlink:href="#bbburst-shape-10" width="30.950370279419886" opacity="0.4954026644829712" transform="matrix(0.9938495475246342,0.11073877769363341,-0.11073877769363341,0.9938495475246342,655.887826248331,-5.872125325576405)" fill="none" stroke="#ffa6d5" filter="url(#bbburst-blur-2)"></use><use xlink:href="#bbburst-shape-10" width="17.96944389134759" opacity="0.7348880184632232" transform="matrix(0.999151919257234,-0.041175748257751124,0.041175748257751124,0.999151919257234,487.00490901789595,-39.12875272537906)" fill="none" stroke="#ff5c58" filter="url(#bbburst-blur-1)"></use><use xlink:href="#bbburst-shape-1" width="35.49001497912584" opacity="0.08478705765504291" transform="matrix(1.7495480042829652,0.03977160682564134,-0.03977160682564134,1.7495480042829652,28.53885532236386,-506.9672462390522)" fill="#ff5c58" filter="url(#bbburst-blur-4)"></use><use xlink:href="#bbburst-shape-1" width="26.147517642148543" opacity="0.6224182760419695" transform="matrix(0.9997345112008297,-0.023041421701757128,0.023041421701757128,0.9997345112008297,427.59533484366875,162.86604006968622)" fill="#ffa6d5" filter="url(#bbburst-blur-1)"></use><use xlink:href="#bbburst-shape-1" width="32.26762274671037" opacity="0.10112410532974903" transform="matrix(1.4701775644297514,-0.9492512465345538,0.9492512465345538,1.4701775644297514,-191.20895867810628,-530.9350037607646)" fill="#2c2891" filter="url(#bbburst-blur-4)"></use><use xlink:href="#bbburst-shape-10" width="48.55581047371865" opacity="0.13170798585030685" transform="matrix(1.2162154628543496,0.2886519494373458,-0.2886519494373458,1.2162154628543496,667.947994369017,-439.2422214281198)" fill="none" stroke="#2c2891" filter="url(#bbburst-blur-3)"></use><use xlink:href="#bbburst-shape-6" width="43.84546282095839" opacity="0.16413007468155782" transform="matrix(1.2487422487687185,0.05606064698203407,-0.05606064698203407,1.2487422487687185,131.07779752882786,-368.6841148367105)" fill="#2c2891" filter="url(#bbburst-blur-3)"></use><use xlink:href="#bbburst-shape-8" width="35.61628008188562" opacity="0.3698384476765504" transform="matrix(0.8329393463319755,0.5533642971244723,-0.5533642971244723,0.8329393463319755,421.25520750295914,-157.72332549103234)" fill="none" stroke="#00a19d" filter="url(#bbburst-blur-2)"></use><use xlink:href="#bbburst-shape-6" width="40.75772879667136" opacity="0.3597715732790079" transform="matrix(0.9920880994845191,0.1255436293134576,-0.1255436293134576,0.9920880994845191,148.6077725378605,-61.21365147506822)" fill="#00a19d" filter="url(#bbburst-blur-2)"></use><use xlink:href="#bbburst-shape-6" width="31.363040367699252" opacity="0.15653537886689706" transform="matrix(1.124203029701344,-0.5465048471974603,0.5465048471974603,1.124203029701344,54.2991736775507,322.31933279124405)" fill="#00a19d" filter="url(#bbburst-blur-3)"></use><use xlink:href="#bbburst-shape-6" width="47.65949794679335" opacity="0.16766353975778658" transform="matrix(1.0154013687452415,-0.7290130728253713,0.7290130728253713,1.0154013687452415,-200.10970183679208,255.05161060697975)" fill="#ffa6d5" filter="url(#bbburst-blur-3)"></use><use xlink:href="#bbburst-shape-4" width="28.135140904534452" opacity="-0.08372433269859347" transform="matrix(1.599004169049867,-0.7111157904034646,0.7111157904034646,1.599004169049867,-269.24558604152844,-555.9765789525056)" fill="#2c2891" filter="url(#bbburst-blur-4)"></use><use xlink:href="#bbburst-shape-4" width="36.47075792193601" opacity="0.3123644343857711" transform="matrix(1.0036175320370169,-0.745152232357877,0.745152232357877,1.0036175320370169,340.03028298087713,-161.10613097317503)" fill="#ff5c58" filter="url(#bbburst-blur-3)"></use><use xlink:href="#bbburst-shape-4" width="27.112470238810452" opacity="0.5982401133810369" transform="matrix(0.7219499862126135,0.6919452416250921,-0.6919452416250921,0.7219499862126135,518.1354828266449,-0.771812394037056)" fill="#00a19d" filter="url(#bbburst-blur-1)"></use><use xlink:href="#bbburst-shape-1" width="39.199209017871546" opacity="0.17919008362061595" transform="matrix(1.205558670171759,0.3303457170506372,-0.3303457170506372,1.205558670171759,151.50798923320826,-183.46187739278724)" fill="#00a19d" filter="url(#bbburst-blur-3)"></use><use xlink:href="#bbburst-shape-8" width="30.644237895202203" opacity="0.2856517001740949" transform="matrix(1.229215976782513,0.22699797889543574,-0.22699797889543574,1.229215976782513,197.1886683717593,-261.99496233863704)" fill="none" stroke="#2c2891" filter="url(#bbburst-blur-3)"></use><use xlink:href="#bbburst-shape-1" width="14.797036488882405" opacity="0.9149483043016278" transform="matrix(0.9843106082419639,-0.1764444005978512,0.1764444005978512,0.9843106082419639,356.6106545769678,-9.038397379697244)" fill="#ffbd9b"></use><use xlink:href="#bbburst-shape-6" width="37.67191830189976" opacity="-0.022000318781243422" transform="matrix(1.715470818904116,0.34591887703396834,-0.34591887703396834,1.715470818904116,219.9498803998393,-652.7756592777073)" fill="#2c2891" filter="url(#bbburst-blur-4)"></use><use xlink:href="#bbburst-shape-4" width="30.656572297957418" opacity="0.3670238763876067" transform="matrix(0.7794947403960666,-0.6264087720449553,0.6264087720449553,0.7794947403960666,-36.59078093764427,323.2670818060105)" fill="#ff5c58" filter="url(#bbburst-blur-2)"></use><use xlink:href="#bbburst-shape-8" width="21.348428814376355" opacity="0.7229600596355186" transform="matrix(0.7325370803939607,-0.6807271302422814,0.6807271302422814,0.7325370803939607,184.91335660079824,220.61892942021302)" fill="none" stroke="#ffbd9b" filter="url(#bbburst-blur-1)"></use><use xlink:href="#bbburst-shape-4" width="20.66851293172605" opacity="0.5788660627978421" transform="matrix(0.8774489481354943,0.47967003597881175,-0.47967003597881175,0.8774489481354943,701.5630750468456,191.75308015710954)" fill="#00a19d" filter="url(#bbburst-blur-1)"></use><use xlink:href="#bbburst-shape-6" width="12.780765538766303" opacity="0.877805615314798" transform="matrix(0.7510566231553731,0.660237797171934,-0.660237797171934,0.7510566231553731,605.6425793239584,107.39941419791114)" fill="#ffa6d5"></use><use xlink:href="#bbburst-shape-10" width="22.909219009716843" opacity="0.6479165588556861" transform="matrix(0.7981587541470316,0.602447178745538,-0.602447178745538,0.7981587541470316,570.7582918194415,-72.35572969347186)" fill="none" stroke="#ffa6d5" filter="url(#bbburst-blur-1)"></use><use xlink:href="#bbburst-shape-4" width="32.40049616637695" opacity="0.10348254436026438" transform="matrix(1.6520183605261738,0.5773520039667424,-0.5773520039667424,1.6520183605261738,783.8828299676395,91.07766038576244)" fill="#2c2891" filter="url(#bbburst-blur-4)"></use><use xlink:href="#bbburst-shape-4" width="17.65267340088359" opacity="0.7446760070388744" transform="matrix(0.9757903218668005,-0.2187081337103991,0.2187081337103991,0.9757903218668005,234.86592532757194,103.46832191099429)" fill="#ff5c58" filter="url(#bbburst-blur-1)"></use><use xlink:href="#bbburst-shape-8" width="15.647111154264758" opacity="0.8315092759737688" transform="matrix(0.9688368080491306,0.24769989779806523,-0.24769989779806523,0.9688368080491306,565.411502454792,-6.381775082827403)" fill="none" stroke="#ff5c58"></use><use xlink:href="#bbburst-shape-1" width="41.660999972242855" opacity="0.3746177712086808" transform="matrix(0.7739888118283372,-0.6331992728711545,0.6331992728711545,0.7739888118283372,398.8465329976839,18.435224865802013)" fill="#2c2891" filter="url(#bbburst-blur-2)"></use><use xlink:href="#bbburst-shape-4" width="31.86691727090762" opacity="0.3004600369000612" transform="matrix(1.053177023263227,-0.6732890595208036,0.6732890595208036,1.053177023263227,273.4733940927265,260.8513131402292)" fill="#ff5c58" filter="url(#bbburst-blur-3)"></use><use xlink:href="#bbburst-shape-8" width="19.415586357734906" opacity="0.8056178274095203" transform="matrix(0.9218906387023323,-0.3874501906994056,0.3874501906994056,0.9218906387023323,173.36630407566915,-25.983006815933607)" fill="none" stroke="#ffa6d5"></use><use xlink:href="#bbburst-shape-10" width="21.99276676152498" opacity="0.8500710090153255" transform="matrix(0.9756868381973502,-0.21916932670530742,0.21916932670530742,0.9756868381973502,279.15727251288445,75.76015213376769)" fill="none" stroke="#ffa6d5"></use><use xlink:href="#bbburst-shape-6" width="24.974282882485955" opacity="0.6495900372689289" transform="matrix(0.9462944465871568,0.32330607844317844,-0.32330607844317844,0.9462944465871568,674.7211006343992,5.289962931386526)" fill="#ff5c58" filter="url(#bbburst-blur-1)"></use><use xlink:href="#bbburst-shape-10" width="21.072745278456807" opacity="0.5498335370885137" transform="matrix(0.8280748341638123,0.5606175782336608,-0.5606175782336608,0.8280748341638123,581.8294178291853,-136.8901438876322)" fill="none" stroke="#00a19d" filter="url(#bbburst-blur-2)"></use><use xlink:href="#bbburst-shape-6" width="30.750588726175053" opacity="0.4724508534778944" transform="matrix(0.9390686816990904,-0.34372956092243856,0.34372956092243856,0.9390686816990904,431.50041758857554,-121.0426061703865)" fill="#ffa6d5" filter="url(#bbburst-blur-2)"></use><use xlink:href="#bbburst-shape-8" width="30.26337068988865" opacity="0.4575105987059219" transform="matrix(0.970039690947496,0.2429464920234218,-0.2429464920234218,0.970039690947496,276.7533860301149,-123.0804508815292)" fill="none" stroke="#ff5c58" filter="url(#bbburst-blur-2)"></use><use xlink:href="#bbburst-shape-6" width="27.88113752164146" opacity="0.33095945388444914" transform="matrix(1.2483448107078996,-0.06430578184469854,0.06430578184469854,1.2483448107078996,657.3000223792852,-78.77037782385173)" fill="#ff5c58" filter="url(#bbburst-blur-3)"></use><use xlink:href="#bbburst-shape-10" width="36.11444306484708" opacity="0.17367302588022637" transform="matrix(1.2125257797183422,0.30377826373594635,-0.30377826373594635,1.2125257797183422,862.3941959868905,-8.870914792982092)" fill="none" stroke="#2c2891" filter="url(#bbburst-blur-3)"></use><use xlink:href="#bbburst-shape-10" width="21.627127191870542" opacity="0.7632593184238768" transform="matrix(0.8830131588937936,0.4693482302303952,-0.4693482302303952,0.8830131588937936,542.829774550414,-58.774097981085674)" fill="none" stroke="#00a19d" filter="url(#bbburst-blur-1)"></use><use xlink:href="#bbburst-shape-6" width="34.37494562969936" opacity="0.18716116825216644" transform="matrix(1.244342865729841,0.11878902519697287,-0.11878902519697287,1.244342865729841,60.69421449558622,-83.93605336380199)" fill="#00a19d" filter="url(#bbburst-blur-3)"></use><use xlink:href="#bbburst-shape-10" width="16.23197369157899" opacity="0.8774207587979951" transform="matrix(0.9954081380551362,0.09572167306105207,-0.09572167306105207,0.9954081380551362,482.15546691991693,19.616859820821333)" fill="none" stroke="#2c2891"></use><use xlink:href="#bbburst-shape-1" width="17.405026124592833" opacity="0.7330686139139686" transform="matrix(0.9076253834055212,-0.4197810898527715,0.4197810898527715,0.9076253834055212,289.26902113942697,-60.34402916866799)" fill="#ff5c58" filter="url(#bbburst-blur-1)"></use><use xlink:href="#bbburst-shape-6" width="31.096112948169065" opacity="0.17370264153873105" transform="matrix(1.228010377093943,0.23343203239828048,-0.23343203239828048,1.228010377093943,396.9366308899781,-458.53422262964546)" fill="#ff5c58" filter="url(#bbburst-blur-3)"></use><use xlink:href="#bbburst-shape-6" width="30.406265020343223" opacity="0.44714627878933033" transform="matrix(0.829851094439517,0.5579849111378693,-0.5579849111378693,0.829851094439517,362.37934391347255,76.64350845885122)" fill="#2c2891" filter="url(#bbburst-blur-2)"></use><use xlink:href="#bbburst-shape-6" width="31.2951989894918" opacity="0.5625588200889977" transform="matrix(0.9181496262002407,0.39623385002843753,-0.39623385002843753,0.9181496262002407,726.0886045183933,-48.55397256664975)" fill="#00a19d" filter="url(#bbburst-blur-1)"></use><use xlink:href="#bbburst-shape-1" width="16.425220240554744" opacity="0.8638134066799387" transform="matrix(0.7177414725014107,0.6963096858808634,-0.6963096858808634,0.7177414725014107,651.3741741322776,49.71470328298949)" fill="#ffa6d5"></use><use xlink:href="#bbburst-shape-1" width="27.396018810794075" opacity="0.32104188037015513" transform="matrix(1.1698713628007227,-0.4403419063622944,0.4403419063622944,1.1698713628007227,295.15960155198854,-354.66715966211166)" fill="#00a19d" filter="url(#bbburst-blur-3)"></use></svg>